<?xml version="1.0" encoding="utf-8"?>
<svg xmlns="http://www.w3.org/2000/svg" xmlns:xlink="http://www.w3.org/1999/xlink" width="672" height="480" viewBox="0 0 2688 1920">
<defs>
  <clipPath id="clip150">
    <rect x="0" y="0" width="2688" height="1920"/>
  </clipPath>
</defs>
<path clip-path="url(#clip150)" d="M0 1920 L2688 1920 L2688 0 L0 0  Z" fill="#ffffff" fill-rule="evenodd" fill-opacity="1"/>
<defs>
  <clipPath id="clip151">
    <rect x="537" y="0" width="1883" height="1883"/>
  </clipPath>
</defs>
<path clip-path="url(#clip150)" d="M143.576 1800.78 L2640.76 1800.78 L2640.76 47.2441 L143.576 47.2441  Z" fill="#ffffff" fill-rule="evenodd" fill-opacity="1"/>
<defs>
  <clipPath id="clip152">
    <rect x="143" y="47" width="2498" height="1755"/>
  </clipPath>
</defs>
<polyline clip-path="url(#clip152)" style="stroke:#000000; stroke-linecap:round; stroke-linejoin:round; stroke-width:2; stroke-opacity:0.1; fill:none" points="143.576,1800.78 143.576,47.2441 "/>
<polyline clip-path="url(#clip152)" style="stroke:#000000; stroke-linecap:round; stroke-linejoin:round; stroke-width:2; stroke-opacity:0.1; fill:none" points="767.871,1800.78 767.871,47.2441 "/>
<polyline clip-path="url(#clip152)" style="stroke:#000000; stroke-linecap:round; stroke-linejoin:round; stroke-width:2; stroke-opacity:0.1; fill:none" points="1392.17,1800.78 1392.17,47.2441 "/>
<polyline clip-path="url(#clip152)" style="stroke:#000000; stroke-linecap:round; stroke-linejoin:round; stroke-width:2; stroke-opacity:0.1; fill:none" points="2016.46,1800.78 2016.46,47.2441 "/>
<polyline clip-path="url(#clip152)" style="stroke:#000000; stroke-linecap:round; stroke-linejoin:round; stroke-width:2; stroke-opacity:0.1; fill:none" points="2640.76,1800.78 2640.76,47.2441 "/>
<polyline clip-path="url(#clip150)" style="stroke:#000000; stroke-linecap:round; stroke-linejoin:round; stroke-width:4; stroke-opacity:1; fill:none" points="143.576,1800.78 2640.76,1800.78 "/>
<polyline clip-path="url(#clip150)" style="stroke:#000000; stroke-linecap:round; stroke-linejoin:round; stroke-width:4; stroke-opacity:1; fill:none" points="143.576,1800.78 143.576,1781.88 "/>
<polyline clip-path="url(#clip150)" style="stroke:#000000; stroke-linecap:round; stroke-linejoin:round; stroke-width:4; stroke-opacity:1; fill:none" points="767.871,1800.78 767.871,1781.88 "/>
<polyline clip-path="url(#clip150)" style="stroke:#000000; stroke-linecap:round; stroke-linejoin:round; stroke-width:4; stroke-opacity:1; fill:none" points="1392.17,1800.78 1392.17,1781.88 "/>
<polyline clip-path="url(#clip150)" style="stroke:#000000; stroke-linecap:round; stroke-linejoin:round; stroke-width:4; stroke-opacity:1; fill:none" points="2016.46,1800.78 2016.46,1781.88 "/>
<polyline clip-path="url(#clip150)" style="stroke:#000000; stroke-linecap:round; stroke-linejoin:round; stroke-width:4; stroke-opacity:1; fill:none" points="2640.76,1800.78 2640.76,1781.88 "/>
<path clip-path="url(#clip150)" d="M143.576 1834 Q139.964 1834 138.136 1837.57 Q136.33 1841.11 136.33 1848.24 Q136.33 1855.34 138.136 1858.91 Q139.964 1862.45 143.576 1862.45 Q147.21 1862.45 149.015 1858.91 Q150.844 1855.34 150.844 1848.24 Q150.844 1841.11 149.015 1837.57 Q147.21 1834 143.576 1834 M143.576 1830.3 Q149.386 1830.3 152.441 1834.9 Q155.52 1839.49 155.52 1848.24 Q155.52 1856.96 152.441 1861.57 Q149.386 1866.15 143.576 1866.15 Q137.765 1866.15 134.687 1861.57 Q131.631 1856.96 131.631 1848.24 Q131.631 1839.49 134.687 1834.9 Q137.765 1830.3 143.576 1830.3 Z" fill="#000000" fill-rule="nonzero" fill-opacity="1" /><path clip-path="url(#clip150)" d="M758.253 1861.55 L765.891 1861.55 L765.891 1835.18 L757.581 1836.85 L757.581 1832.59 L765.845 1830.92 L770.521 1830.92 L770.521 1861.55 L778.16 1861.55 L778.16 1865.48 L758.253 1865.48 L758.253 1861.55 Z" fill="#000000" fill-rule="nonzero" fill-opacity="1" /><path clip-path="url(#clip150)" d="M1386.82 1861.55 L1403.14 1861.55 L1403.14 1865.48 L1381.19 1865.48 L1381.19 1861.55 Q1383.86 1858.79 1388.44 1854.16 Q1393.05 1849.51 1394.23 1848.17 Q1396.47 1845.65 1397.35 1843.91 Q1398.25 1842.15 1398.25 1840.46 Q1398.25 1837.71 1396.31 1835.97 Q1394.39 1834.23 1391.29 1834.23 Q1389.09 1834.23 1386.63 1835 Q1384.2 1835.76 1381.43 1837.31 L1381.43 1832.59 Q1384.25 1831.46 1386.7 1830.88 Q1389.16 1830.3 1391.19 1830.3 Q1396.56 1830.3 1399.76 1832.98 Q1402.95 1835.67 1402.95 1840.16 Q1402.95 1842.29 1402.14 1844.21 Q1401.36 1846.11 1399.25 1848.7 Q1398.67 1849.37 1395.57 1852.59 Q1392.47 1855.78 1386.82 1861.55 Z" fill="#000000" fill-rule="nonzero" fill-opacity="1" /><path clip-path="url(#clip150)" d="M2020.71 1846.85 Q2024.06 1847.57 2025.94 1849.84 Q2027.84 1852.1 2027.84 1855.44 Q2027.84 1860.55 2024.32 1863.35 Q2020.8 1866.15 2014.32 1866.15 Q2012.14 1866.15 2009.83 1865.71 Q2007.54 1865.3 2005.08 1864.44 L2005.08 1859.93 Q2007.03 1861.06 2009.34 1861.64 Q2011.66 1862.22 2014.18 1862.22 Q2018.58 1862.22 2020.87 1860.48 Q2023.19 1858.75 2023.19 1855.44 Q2023.19 1852.38 2021.03 1850.67 Q2018.9 1848.93 2015.08 1848.93 L2011.06 1848.93 L2011.06 1845.09 L2015.27 1845.09 Q2018.72 1845.09 2020.55 1843.72 Q2022.38 1842.34 2022.38 1839.74 Q2022.38 1837.08 2020.48 1835.67 Q2018.6 1834.23 2015.08 1834.23 Q2013.16 1834.23 2010.96 1834.65 Q2008.76 1835.07 2006.13 1835.95 L2006.13 1831.78 Q2008.79 1831.04 2011.1 1830.67 Q2013.44 1830.3 2015.5 1830.3 Q2020.82 1830.3 2023.93 1832.73 Q2027.03 1835.14 2027.03 1839.26 Q2027.03 1842.13 2025.38 1844.12 Q2023.74 1846.09 2020.71 1846.85 Z" fill="#000000" fill-rule="nonzero" fill-opacity="1" /><path clip-path="url(#clip150)" d="M2643.77 1835 L2631.96 1853.45 L2643.77 1853.45 L2643.77 1835 M2642.54 1830.92 L2648.42 1830.92 L2648.42 1853.45 L2653.35 1853.45 L2653.35 1857.34 L2648.42 1857.34 L2648.42 1865.48 L2643.77 1865.48 L2643.77 1857.34 L2628.16 1857.34 L2628.16 1852.82 L2642.54 1830.92 Z" fill="#000000" fill-rule="nonzero" fill-opacity="1" /><polyline clip-path="url(#clip152)" style="stroke:#000000; stroke-linecap:round; stroke-linejoin:round; stroke-width:2; stroke-opacity:0.1; fill:none" points="143.576,1682.22 2640.76,1682.22 "/>
<polyline clip-path="url(#clip152)" style="stroke:#000000; stroke-linecap:round; stroke-linejoin:round; stroke-width:2; stroke-opacity:0.1; fill:none" points="143.576,1337.58 2640.76,1337.58 "/>
<polyline clip-path="url(#clip152)" style="stroke:#000000; stroke-linecap:round; stroke-linejoin:round; stroke-width:2; stroke-opacity:0.1; fill:none" points="143.576,992.94 2640.76,992.94 "/>
<polyline clip-path="url(#clip152)" style="stroke:#000000; stroke-linecap:round; stroke-linejoin:round; stroke-width:2; stroke-opacity:0.1; fill:none" points="143.576,648.299 2640.76,648.299 "/>
<polyline clip-path="url(#clip152)" style="stroke:#000000; stroke-linecap:round; stroke-linejoin:round; stroke-width:2; stroke-opacity:0.1; fill:none" points="143.576,303.657 2640.76,303.657 "/>
<polyline clip-path="url(#clip150)" style="stroke:#000000; stroke-linecap:round; stroke-linejoin:round; stroke-width:4; stroke-opacity:1; fill:none" points="143.576,1800.78 143.576,47.2441 "/>
<polyline clip-path="url(#clip150)" style="stroke:#000000; stroke-linecap:round; stroke-linejoin:round; stroke-width:4; stroke-opacity:1; fill:none" points="143.576,1682.22 162.473,1682.22 "/>
<polyline clip-path="url(#clip150)" style="stroke:#000000; stroke-linecap:round; stroke-linejoin:round; stroke-width:4; stroke-opacity:1; fill:none" points="143.576,1337.58 162.473,1337.58 "/>
<polyline clip-path="url(#clip150)" style="stroke:#000000; stroke-linecap:round; stroke-linejoin:round; stroke-width:4; stroke-opacity:1; fill:none" points="143.576,992.94 162.473,992.94 "/>
<polyline clip-path="url(#clip150)" style="stroke:#000000; stroke-linecap:round; stroke-linejoin:round; stroke-width:4; stroke-opacity:1; fill:none" points="143.576,648.299 162.473,648.299 "/>
<polyline clip-path="url(#clip150)" style="stroke:#000000; stroke-linecap:round; stroke-linejoin:round; stroke-width:4; stroke-opacity:1; fill:none" points="143.576,303.657 162.473,303.657 "/>
<path clip-path="url(#clip150)" d="M91.3112 1668.02 Q87.7001 1668.02 85.8714 1671.59 Q84.0658 1675.13 84.0658 1682.26 Q84.0658 1689.36 85.8714 1692.93 Q87.7001 1696.47 91.3112 1696.47 Q94.9454 1696.47 96.7509 1692.93 Q98.5796 1689.36 98.5796 1682.26 Q98.5796 1675.13 96.7509 1671.59 Q94.9454 1668.02 91.3112 1668.02 M91.3112 1664.32 Q97.1213 1664.32 100.177 1668.92 Q103.256 1673.51 103.256 1682.26 Q103.256 1690.98 100.177 1695.59 Q97.1213 1700.17 91.3112 1700.17 Q85.501 1700.17 82.4223 1695.59 Q79.3668 1690.98 79.3668 1682.26 Q79.3668 1673.51 82.4223 1668.92 Q85.501 1664.32 91.3112 1664.32 Z" fill="#000000" fill-rule="nonzero" fill-opacity="1" /><path clip-path="url(#clip150)" d="M82.3529 1320.3 L100.709 1320.3 L100.709 1324.24 L86.6353 1324.24 L86.6353 1332.71 Q87.6538 1332.36 88.6723 1332.2 Q89.6908 1332.01 90.7093 1332.01 Q96.4963 1332.01 99.8759 1335.19 Q103.256 1338.36 103.256 1343.77 Q103.256 1349.35 99.7833 1352.45 Q96.3111 1355.53 89.9917 1355.53 Q87.8158 1355.53 85.5473 1355.16 Q83.3019 1354.79 80.8946 1354.05 L80.8946 1349.35 Q82.9779 1350.49 85.2001 1351.04 Q87.4223 1351.6 89.8991 1351.6 Q93.9037 1351.6 96.2417 1349.49 Q98.5796 1347.38 98.5796 1343.77 Q98.5796 1340.16 96.2417 1338.06 Q93.9037 1335.95 89.8991 1335.95 Q88.0241 1335.95 86.1492 1336.37 Q84.2973 1336.78 82.3529 1337.66 L82.3529 1320.3 Z" fill="#000000" fill-rule="nonzero" fill-opacity="1" /><path clip-path="url(#clip150)" d="M51.9595 1006.28 L59.5984 1006.28 L59.5984 979.919 L51.2882 981.586 L51.2882 977.327 L59.5521 975.66 L64.228 975.66 L64.228 1006.28 L71.8668 1006.28 L71.8668 1010.22 L51.9595 1010.22 L51.9595 1006.28 Z" fill="#000000" fill-rule="nonzero" fill-opacity="1" /><path clip-path="url(#clip150)" d="M91.3112 978.739 Q87.7001 978.739 85.8714 982.303 Q84.0658 985.845 84.0658 992.975 Q84.0658 1000.08 85.8714 1003.65 Q87.7001 1007.19 91.3112 1007.19 Q94.9454 1007.19 96.7509 1003.65 Q98.5796 1000.08 98.5796 992.975 Q98.5796 985.845 96.7509 982.303 Q94.9454 978.739 91.3112 978.739 M91.3112 975.035 Q97.1213 975.035 100.177 979.641 Q103.256 984.225 103.256 992.975 Q103.256 1001.7 100.177 1006.31 Q97.1213 1010.89 91.3112 1010.89 Q85.501 1010.89 82.4223 1006.31 Q79.3668 1001.7 79.3668 992.975 Q79.3668 984.225 82.4223 979.641 Q85.501 975.035 91.3112 975.035 Z" fill="#000000" fill-rule="nonzero" fill-opacity="1" /><path clip-path="url(#clip150)" d="M52.9549 661.643 L60.5937 661.643 L60.5937 635.278 L52.2836 636.945 L52.2836 632.685 L60.5474 631.019 L65.2233 631.019 L65.2233 661.643 L72.8622 661.643 L72.8622 665.579 L52.9549 665.579 L52.9549 661.643 Z" fill="#000000" fill-rule="nonzero" fill-opacity="1" /><path clip-path="url(#clip150)" d="M82.3529 631.019 L100.709 631.019 L100.709 634.954 L86.6353 634.954 L86.6353 643.426 Q87.6538 643.079 88.6723 642.917 Q89.6908 642.732 90.7093 642.732 Q96.4963 642.732 99.8759 645.903 Q103.256 649.074 103.256 654.491 Q103.256 660.069 99.7833 663.171 Q96.3111 666.25 89.9917 666.25 Q87.8158 666.25 85.5473 665.88 Q83.3019 665.509 80.8946 664.768 L80.8946 660.069 Q82.9779 661.204 85.2001 661.759 Q87.4223 662.315 89.8991 662.315 Q93.9037 662.315 96.2417 660.208 Q98.5796 658.102 98.5796 654.491 Q98.5796 650.88 96.2417 648.773 Q93.9037 646.667 89.8991 646.667 Q88.0241 646.667 86.1492 647.083 Q84.2973 647.5 82.3529 648.38 L82.3529 631.019 Z" fill="#000000" fill-rule="nonzero" fill-opacity="1" /><path clip-path="url(#clip150)" d="M55.1771 317.002 L71.4965 317.002 L71.4965 320.937 L49.5521 320.937 L49.5521 317.002 Q52.2141 314.247 56.7975 309.618 Q61.4039 304.965 62.5845 303.623 Q64.8298 301.099 65.7094 299.363 Q66.6122 297.604 66.6122 295.914 Q66.6122 293.16 64.6678 291.424 Q62.7465 289.687 59.6447 289.687 Q57.4456 289.687 54.9919 290.451 Q52.5614 291.215 49.7836 292.766 L49.7836 288.044 Q52.6077 286.91 55.0614 286.331 Q57.515 285.752 59.5521 285.752 Q64.9224 285.752 68.1168 288.437 Q71.3113 291.123 71.3113 295.613 Q71.3113 297.743 70.5011 299.664 Q69.7141 301.562 67.6076 304.155 Q67.0289 304.826 63.927 308.044 Q60.8252 311.238 55.1771 317.002 Z" fill="#000000" fill-rule="nonzero" fill-opacity="1" /><path clip-path="url(#clip150)" d="M91.3112 289.456 Q87.7001 289.456 85.8714 293.021 Q84.0658 296.562 84.0658 303.692 Q84.0658 310.798 85.8714 314.363 Q87.7001 317.905 91.3112 317.905 Q94.9454 317.905 96.7509 314.363 Q98.5796 310.798 98.5796 303.692 Q98.5796 296.562 96.7509 293.021 Q94.9454 289.456 91.3112 289.456 M91.3112 285.752 Q97.1213 285.752 100.177 290.359 Q103.256 294.942 103.256 303.692 Q103.256 312.419 100.177 317.025 Q97.1213 321.609 91.3112 321.609 Q85.501 321.609 82.4223 317.025 Q79.3668 312.419 79.3668 303.692 Q79.3668 294.942 82.4223 290.359 Q85.501 285.752 91.3112 285.752 Z" fill="#000000" fill-rule="nonzero" fill-opacity="1" /><polyline clip-path="url(#clip152)" style="stroke:#009af9; stroke-linecap:round; stroke-linejoin:round; stroke-width:4; stroke-opacity:1; fill:none" points="143.576,96.8724 147.64,104.941 151.705,112.993 155.769,121.026 159.834,129.041 197.416,202.27 234.998,273.816 272.58,343.558 310.162,411.386 355.333,490.23 400.504,565.996 438.695,627.544 476.886,686.707 518.372,748.19 559.859,806.697 598.106,857.941 636.352,906.555 677.357,955.714 718.361,1001.78 765.869,1051.26 813.377,1096.55 855.596,1133.29 897.816,1166.75 934.838,1193.41 971.861,1217.61 1012.23,1241.23 1052.59,1262.02 1093.19,1280.16 1133.8,1295.59 1178.69,1309.62 1223.59,1320.6 1266.3,1328.37 1309.02,1333.68 1353.43,1336.76 1397.84,1337.56 1435.23,1336.63 1472.62,1334.38 1563.91,1324.23 1647.53,1310.78 1724.77,1296.6 1803.01,1282.34 1890.69,1268.88 1970.15,1261.38 2015.63,1260.04 2061.12,1261.44 2103.23,1265.6 2145.35,1272.92 2186.87,1283.64 2228.39,1298.26 2268.7,1316.56 2309.01,1339.33 2329.68,1352.85 2350.34,1367.71 2371,1383.97 2391.67,1401.67 2414.31,1422.79 2436.94,1445.8 2459.58,1470.77 2482.22,1497.79 2498.67,1518.74 2515.11,1540.84 2531.55,1564.12 2548,1588.62 2564.44,1614.37 2580.88,1641.4 2597.33,1669.74 2613.77,1699.42 2620.52,1712 2627.26,1724.81 2634.01,1737.86 2640.76,1751.15 "/>
<polyline clip-path="url(#clip152)" style="stroke:#e26f46; stroke-linecap:round; stroke-linejoin:round; stroke-width:4; stroke-opacity:1; fill:none" points="143.576,1682.22 159.834,1682.22 310.162,1682.22 400.504,1682.22 476.886,1682.22 559.859,1682.22 636.352,1682.22 718.361,1682.22 813.377,1682.22 897.816,1682.22 971.861,1682.22 1052.59,1682.22 1133.8,1682.22 1223.59,1682.22 1309.02,1682.22 1397.84,1682.22 1472.62,1682.22 1563.91,1682.22 1647.53,1682.22 1724.77,1682.22 1803.01,1682.22 1890.69,1682.22 1970.15,1682.22 2061.12,1682.22 2145.35,1682.22 2228.39,1682.22 2309.01,1682.22 2391.67,1682.22 2482.22,1682.22 2613.77,1682.22 2640.76,1682.22 "/>
<polyline clip-path="url(#clip152)" style="stroke:#3da44d; stroke-linecap:round; stroke-linejoin:round; stroke-width:4; stroke-opacity:1; fill:none" points="143.576,1260.04 159.834,1260.04 310.162,1260.04 400.504,1260.04 476.886,1260.04 559.859,1260.04 636.352,1260.04 718.361,1260.04 813.377,1260.04 897.816,1260.04 971.861,1260.04 1052.59,1260.04 1133.8,1260.04 1223.59,1260.04 1309.02,1260.04 1397.84,1260.04 1472.62,1260.04 1563.91,1260.04 1647.53,1260.04 1724.77,1260.04 1803.01,1260.04 1890.69,1260.04 1970.15,1260.04 2061.12,1260.04 2145.35,1260.04 2228.39,1260.04 2309.01,1260.04 2391.67,1260.04 2482.22,1260.04 2613.77,1260.04 2640.76,1260.04 "/>
<path clip-path="url(#clip150)" d="M1916.41 313.055 L2557.52 313.055 L2557.52 105.695 L1916.41 105.695  Z" fill="#ffffff" fill-rule="evenodd" fill-opacity="1"/>
<polyline clip-path="url(#clip150)" style="stroke:#000000; stroke-linecap:round; stroke-linejoin:round; stroke-width:4; stroke-opacity:1; fill:none" points="1916.41,313.055 2557.52,313.055 2557.52,105.695 1916.41,105.695 1916.41,313.055 "/>
<polyline clip-path="url(#clip150)" style="stroke:#009af9; stroke-linecap:round; stroke-linejoin:round; stroke-width:4; stroke-opacity:1; fill:none" points="1944.16,157.535 2110.64,157.535 "/>
<path clip-path="url(#clip150)" d="M2152.23 177.223 Q2150.42 181.852 2148.71 183.264 Q2146.99 184.676 2144.12 184.676 L2140.72 184.676 L2140.72 181.112 L2143.22 181.112 Q2144.98 181.112 2145.95 180.278 Q2146.92 179.445 2148.11 176.343 L2148.87 174.399 L2138.38 148.889 L2142.9 148.889 L2151 169.167 L2159.1 148.889 L2163.61 148.889 L2152.23 177.223 Z" fill="#000000" fill-rule="nonzero" fill-opacity="1" /><path clip-path="url(#clip150)" d="M2170.05 153.288 L2199.73 153.288 L2199.73 157.176 L2170.05 157.176 L2170.05 153.288 M2170.05 162.732 L2199.73 162.732 L2199.73 166.667 L2170.05 166.667 L2170.05 162.732 Z" fill="#000000" fill-rule="nonzero" fill-opacity="1" /><path clip-path="url(#clip150)" d="M2226.28 161.551 Q2226.28 156.922 2224.36 154.376 Q2222.46 151.829 2219.01 151.829 Q2215.58 151.829 2213.66 154.376 Q2211.76 156.922 2211.76 161.551 Q2211.76 166.158 2213.66 168.704 Q2215.58 171.25 2219.01 171.25 Q2222.46 171.25 2224.36 168.704 Q2226.28 166.158 2226.28 161.551 M2230.54 171.598 Q2230.54 178.218 2227.6 181.436 Q2224.66 184.676 2218.59 184.676 Q2216.35 184.676 2214.36 184.329 Q2212.36 184.005 2210.49 183.311 L2210.49 179.167 Q2212.36 180.186 2214.19 180.672 Q2216.02 181.158 2217.92 181.158 Q2222.11 181.158 2224.19 178.959 Q2226.28 176.783 2226.28 172.362 L2226.28 170.255 Q2224.96 172.547 2222.9 173.681 Q2220.84 174.815 2217.97 174.815 Q2213.2 174.815 2210.28 171.181 Q2207.36 167.547 2207.36 161.551 Q2207.36 155.533 2210.28 151.899 Q2213.2 148.264 2217.97 148.264 Q2220.84 148.264 2222.9 149.399 Q2224.96 150.533 2226.28 152.825 L2226.28 148.889 L2230.54 148.889 L2230.54 171.598 Z" fill="#000000" fill-rule="nonzero" fill-opacity="1" /><path clip-path="url(#clip150)" d="M2249.54 138.843 Q2246.44 144.167 2244.93 149.376 Q2243.43 154.584 2243.43 159.931 Q2243.43 165.278 2244.93 170.533 Q2246.46 175.764 2249.54 181.065 L2245.84 181.065 Q2242.36 175.625 2240.63 170.371 Q2238.92 165.116 2238.92 159.931 Q2238.92 154.769 2240.63 149.538 Q2242.34 144.306 2245.84 138.843 L2249.54 138.843 Z" fill="#000000" fill-rule="nonzero" fill-opacity="1" /><path clip-path="url(#clip150)" d="M2279.35 148.889 L2269.98 161.505 L2279.84 174.815 L2274.82 174.815 L2267.27 164.63 L2259.73 174.815 L2254.7 174.815 L2264.77 161.251 L2255.56 148.889 L2260.58 148.889 L2267.46 158.126 L2274.33 148.889 L2279.35 148.889 Z" fill="#000000" fill-rule="nonzero" fill-opacity="1" /><path clip-path="url(#clip150)" d="M2285.19 138.843 L2288.89 138.843 Q2292.36 144.306 2294.08 149.538 Q2295.81 154.769 2295.81 159.931 Q2295.81 165.116 2294.08 170.371 Q2292.36 175.625 2288.89 181.065 L2285.19 181.065 Q2288.27 175.764 2289.77 170.533 Q2291.3 165.278 2291.3 159.931 Q2291.3 154.584 2289.77 149.376 Q2288.27 144.167 2285.19 138.843 Z" fill="#000000" fill-rule="nonzero" fill-opacity="1" /><polyline clip-path="url(#clip150)" style="stroke:#e26f46; stroke-linecap:round; stroke-linejoin:round; stroke-width:4; stroke-opacity:1; fill:none" points="1944.16,209.375 2110.64,209.375 "/>
<path clip-path="url(#clip150)" d="M2152.23 229.063 Q2150.42 233.692 2148.71 235.104 Q2146.99 236.516 2144.12 236.516 L2140.72 236.516 L2140.72 232.952 L2143.22 232.952 Q2144.98 232.952 2145.95 232.118 Q2146.92 231.285 2148.11 228.183 L2148.87 226.239 L2138.38 200.729 L2142.9 200.729 L2151 221.007 L2159.1 200.729 L2163.61 200.729 L2152.23 229.063 Z" fill="#000000" fill-rule="nonzero" fill-opacity="1" /><path clip-path="url(#clip150)" d="M2170.05 205.128 L2199.73 205.128 L2199.73 209.016 L2170.05 209.016 L2170.05 205.128 M2170.05 214.572 L2199.73 214.572 L2199.73 218.507 L2170.05 218.507 L2170.05 214.572 Z" fill="#000000" fill-rule="nonzero" fill-opacity="1" /><path clip-path="url(#clip150)" d="M2219.82 195.174 Q2216.21 195.174 2214.38 198.739 Q2212.57 202.28 2212.57 209.41 Q2212.57 216.516 2214.38 220.081 Q2216.21 223.623 2219.82 223.623 Q2223.45 223.623 2225.26 220.081 Q2227.09 216.516 2227.09 209.41 Q2227.09 202.28 2225.26 198.739 Q2223.45 195.174 2219.82 195.174 M2219.82 191.47 Q2225.63 191.47 2228.68 196.077 Q2231.76 200.66 2231.76 209.41 Q2231.76 218.137 2228.68 222.743 Q2225.63 227.327 2219.82 227.327 Q2214.01 227.327 2210.93 222.743 Q2207.87 218.137 2207.87 209.41 Q2207.87 200.66 2210.93 196.077 Q2214.01 191.47 2219.82 191.47 Z" fill="#000000" fill-rule="nonzero" fill-opacity="1" /><polyline clip-path="url(#clip150)" style="stroke:#3da44d; stroke-linecap:round; stroke-linejoin:round; stroke-width:4; stroke-opacity:1; fill:none" points="1944.16,261.215 2110.64,261.215 "/>
<path clip-path="url(#clip150)" d="M2152.23 280.903 Q2150.42 285.532 2148.71 286.944 Q2146.99 288.356 2144.12 288.356 L2140.72 288.356 L2140.72 284.792 L2143.22 284.792 Q2144.98 284.792 2145.95 283.958 Q2146.92 283.125 2148.11 280.023 L2148.87 278.079 L2138.38 252.569 L2142.9 252.569 L2151 272.847 L2159.1 252.569 L2163.61 252.569 L2152.23 280.903 Z" fill="#000000" fill-rule="nonzero" fill-opacity="1" /><path clip-path="url(#clip150)" d="M2170.05 256.968 L2199.73 256.968 L2199.73 260.856 L2170.05 260.856 L2170.05 256.968 M2170.05 266.412 L2199.73 266.412 L2199.73 270.347 L2170.05 270.347 L2170.05 266.412 Z" fill="#000000" fill-rule="nonzero" fill-opacity="1" /><path clip-path="url(#clip150)" d="M2222.34 242.477 L2222.34 246.019 L2218.27 246.019 Q2215.98 246.019 2215.07 246.945 Q2214.19 247.87 2214.19 250.278 L2214.19 252.569 L2221.21 252.569 L2221.21 255.88 L2214.19 255.88 L2214.19 278.495 L2209.91 278.495 L2209.91 255.88 L2205.84 255.88 L2205.84 252.569 L2209.91 252.569 L2209.91 250.764 Q2209.91 246.435 2211.92 244.468 Q2213.94 242.477 2218.31 242.477 L2222.34 242.477 Z" fill="#000000" fill-rule="nonzero" fill-opacity="1" /><path clip-path="url(#clip150)" d="M2236.14 242.523 Q2233.04 247.847 2231.53 253.056 Q2230.03 258.264 2230.03 263.611 Q2230.03 268.958 2231.53 274.213 Q2233.06 279.444 2236.14 284.745 L2232.43 284.745 Q2228.96 279.305 2227.23 274.051 Q2225.51 268.796 2225.51 263.611 Q2225.51 258.449 2227.23 253.218 Q2228.94 247.986 2232.43 242.523 L2236.14 242.523 Z" fill="#000000" fill-rule="nonzero" fill-opacity="1" /><path clip-path="url(#clip150)" d="M2259.17 259.861 Q2262.53 260.579 2264.4 262.847 Q2266.3 265.116 2266.3 268.449 Q2266.3 273.565 2262.78 276.366 Q2259.26 279.167 2252.78 279.167 Q2250.6 279.167 2248.29 278.727 Q2246 278.31 2243.54 277.454 L2243.54 272.94 Q2245.49 274.074 2247.8 274.653 Q2250.12 275.231 2252.64 275.231 Q2257.04 275.231 2259.33 273.495 Q2261.65 271.759 2261.65 268.449 Q2261.65 265.393 2259.49 263.681 Q2257.36 261.944 2253.54 261.944 L2249.52 261.944 L2249.52 258.102 L2253.73 258.102 Q2257.18 258.102 2259.01 256.736 Q2260.84 255.347 2260.84 252.755 Q2260.84 250.093 2258.94 248.681 Q2257.06 247.245 2253.54 247.245 Q2251.62 247.245 2249.42 247.662 Q2247.23 248.079 2244.59 248.958 L2244.59 244.792 Q2247.25 244.051 2249.56 243.681 Q2251.9 243.31 2253.96 243.31 Q2259.29 243.31 2262.39 245.741 Q2265.49 248.148 2265.49 252.269 Q2265.49 255.139 2263.85 257.13 Q2262.2 259.097 2259.17 259.861 Z" fill="#000000" fill-rule="nonzero" fill-opacity="1" /><path clip-path="url(#clip150)" d="M2273.89 242.523 L2277.6 242.523 Q2281.07 247.986 2282.78 253.218 Q2284.52 258.449 2284.52 263.611 Q2284.52 268.796 2282.78 274.051 Q2281.07 279.305 2277.6 284.745 L2273.89 284.745 Q2276.97 279.444 2278.48 274.213 Q2280 268.958 2280 263.611 Q2280 258.264 2278.48 253.056 Q2276.97 247.847 2273.89 242.523 Z" fill="#000000" fill-rule="nonzero" fill-opacity="1" /><path clip-path="url(#clip150)" d="M2310.72 243.935 L2323.29 256.829 L2318.64 256.829 L2308.45 247.685 L2298.27 256.829 L2293.61 256.829 L2306.18 243.935 L2310.72 243.935 Z" fill="#000000" fill-rule="nonzero" fill-opacity="1" /><path clip-path="url(#clip150)" d="M2337.41 274.56 L2353.73 274.56 L2353.73 278.495 L2331.79 278.495 L2331.79 274.56 Q2334.45 271.805 2339.03 267.176 Q2343.64 262.523 2344.82 261.181 Q2347.06 258.657 2347.94 256.921 Q2348.85 255.162 2348.85 253.472 Q2348.85 250.718 2346.9 248.982 Q2344.98 247.245 2341.88 247.245 Q2339.68 247.245 2337.22 248.009 Q2334.79 248.773 2332.02 250.324 L2332.02 245.602 Q2334.84 244.468 2337.29 243.889 Q2339.75 243.31 2341.79 243.31 Q2347.16 243.31 2350.35 245.995 Q2353.54 248.681 2353.54 253.171 Q2353.54 255.301 2352.73 257.222 Q2351.95 259.12 2349.84 261.713 Q2349.26 262.384 2346.16 265.602 Q2343.06 268.796 2337.41 274.56 Z" fill="#000000" fill-rule="nonzero" fill-opacity="1" /><path clip-path="url(#clip150)" d="M2363.5 256.968 L2393.17 256.968 L2393.17 260.856 L2363.5 260.856 L2363.5 256.968 M2363.5 266.412 L2393.17 266.412 L2393.17 270.347 L2363.5 270.347 L2363.5 266.412 Z" fill="#000000" fill-rule="nonzero" fill-opacity="1" /><path clip-path="url(#clip150)" d="M2413.84 259.352 Q2410.7 259.352 2408.84 261.505 Q2407.02 263.657 2407.02 267.407 Q2407.02 271.134 2408.84 273.31 Q2410.7 275.463 2413.84 275.463 Q2416.99 275.463 2418.82 273.31 Q2420.67 271.134 2420.67 267.407 Q2420.67 263.657 2418.82 261.505 Q2416.99 259.352 2413.84 259.352 M2423.13 244.699 L2423.13 248.958 Q2421.37 248.125 2419.56 247.685 Q2417.78 247.245 2416.02 247.245 Q2411.39 247.245 2408.94 250.37 Q2406.51 253.495 2406.16 259.815 Q2407.53 257.801 2409.59 256.736 Q2411.65 255.648 2414.12 255.648 Q2419.33 255.648 2422.34 258.819 Q2425.37 261.968 2425.37 267.407 Q2425.37 272.731 2422.22 275.949 Q2419.08 279.167 2413.84 279.167 Q2407.85 279.167 2404.68 274.583 Q2401.51 269.977 2401.51 261.25 Q2401.51 253.056 2405.4 248.195 Q2409.28 243.31 2415.84 243.31 Q2417.59 243.31 2419.38 243.657 Q2421.18 244.005 2423.13 244.699 Z" fill="#000000" fill-rule="nonzero" fill-opacity="1" /><path clip-path="url(#clip150)" d="M2433.43 272.616 L2438.31 272.616 L2438.31 278.495 L2433.43 278.495 L2433.43 272.616 Z" fill="#000000" fill-rule="nonzero" fill-opacity="1" /><path clip-path="url(#clip150)" d="M2449.31 274.56 L2456.95 274.56 L2456.95 248.195 L2448.64 249.861 L2448.64 245.602 L2456.9 243.935 L2461.58 243.935 L2461.58 274.56 L2469.21 274.56 L2469.21 278.495 L2449.31 278.495 L2449.31 274.56 Z" fill="#000000" fill-rule="nonzero" fill-opacity="1" /><path clip-path="url(#clip150)" d="M2482.69 274.56 L2499.01 274.56 L2499.01 278.495 L2477.06 278.495 L2477.06 274.56 Q2479.72 271.805 2484.31 267.176 Q2488.91 262.523 2490.09 261.181 Q2492.34 258.657 2493.22 256.921 Q2494.12 255.162 2494.12 253.472 Q2494.12 250.718 2492.18 248.982 Q2490.26 247.245 2487.15 247.245 Q2484.96 247.245 2482.5 248.009 Q2480.07 248.773 2477.29 250.324 L2477.29 245.602 Q2480.12 244.468 2482.57 243.889 Q2485.02 243.31 2487.06 243.31 Q2492.43 243.31 2495.63 245.995 Q2498.82 248.681 2498.82 253.171 Q2498.82 255.301 2498.01 257.222 Q2497.22 259.12 2495.12 261.713 Q2494.54 262.384 2491.44 265.602 Q2488.34 268.796 2482.69 274.56 Z" fill="#000000" fill-rule="nonzero" fill-opacity="1" /><path clip-path="url(#clip150)" d="M2508.87 243.935 L2527.22 243.935 L2527.22 247.87 L2513.15 247.87 L2513.15 256.343 Q2514.17 255.995 2515.19 255.833 Q2516.21 255.648 2517.22 255.648 Q2523.01 255.648 2526.39 258.819 Q2529.77 261.991 2529.77 267.407 Q2529.77 272.986 2526.3 276.088 Q2522.83 279.167 2516.51 279.167 Q2514.33 279.167 2512.06 278.796 Q2509.82 278.426 2507.41 277.685 L2507.41 272.986 Q2509.49 274.12 2511.71 274.676 Q2513.94 275.231 2516.41 275.231 Q2520.42 275.231 2522.76 273.125 Q2525.09 271.018 2525.09 267.407 Q2525.09 263.796 2522.76 261.69 Q2520.42 259.583 2516.41 259.583 Q2514.54 259.583 2512.66 260 Q2510.81 260.417 2508.87 261.296 L2508.87 243.935 Z" fill="#000000" fill-rule="nonzero" fill-opacity="1" /></svg>
