<?xml version="1.0" encoding="utf-8"?>
<svg xmlns="http://www.w3.org/2000/svg" xmlns:xlink="http://www.w3.org/1999/xlink" width="672" height="480" viewBox="0 0 2688 1920">
<defs>
  <clipPath id="clip110">
    <rect x="0" y="0" width="2688" height="1920"/>
  </clipPath>
</defs>
<path clip-path="url(#clip110)" d="M0 1920 L2688 1920 L2688 0 L0 0  Z" fill="#ffffff" fill-rule="evenodd" fill-opacity="1"/>
<defs>
  <clipPath id="clip111">
    <rect x="537" y="0" width="1883" height="1883"/>
  </clipPath>
</defs>
<path clip-path="url(#clip110)" d="M189.154 1800.78 L2640.76 1800.78 L2640.76 47.2441 L189.154 47.2441  Z" fill="#ffffff" fill-rule="evenodd" fill-opacity="1"/>
<defs>
  <clipPath id="clip112">
    <rect x="189" y="47" width="2453" height="1755"/>
  </clipPath>
</defs>
<polyline clip-path="url(#clip112)" style="stroke:#000000; stroke-linecap:round; stroke-linejoin:round; stroke-width:2; stroke-opacity:0.1; fill:none" points="189.154,1800.78 189.154,47.2441 "/>
<polyline clip-path="url(#clip112)" style="stroke:#000000; stroke-linecap:round; stroke-linejoin:round; stroke-width:2; stroke-opacity:0.1; fill:none" points="679.474,1800.78 679.474,47.2441 "/>
<polyline clip-path="url(#clip112)" style="stroke:#000000; stroke-linecap:round; stroke-linejoin:round; stroke-width:2; stroke-opacity:0.1; fill:none" points="1169.79,1800.78 1169.79,47.2441 "/>
<polyline clip-path="url(#clip112)" style="stroke:#000000; stroke-linecap:round; stroke-linejoin:round; stroke-width:2; stroke-opacity:0.1; fill:none" points="1660.12,1800.78 1660.12,47.2441 "/>
<polyline clip-path="url(#clip112)" style="stroke:#000000; stroke-linecap:round; stroke-linejoin:round; stroke-width:2; stroke-opacity:0.1; fill:none" points="2150.44,1800.78 2150.44,47.2441 "/>
<polyline clip-path="url(#clip112)" style="stroke:#000000; stroke-linecap:round; stroke-linejoin:round; stroke-width:2; stroke-opacity:0.1; fill:none" points="2640.76,1800.78 2640.76,47.2441 "/>
<polyline clip-path="url(#clip110)" style="stroke:#000000; stroke-linecap:round; stroke-linejoin:round; stroke-width:4; stroke-opacity:1; fill:none" points="189.154,1800.78 2640.76,1800.78 "/>
<polyline clip-path="url(#clip110)" style="stroke:#000000; stroke-linecap:round; stroke-linejoin:round; stroke-width:4; stroke-opacity:1; fill:none" points="189.154,1800.78 189.154,1781.88 "/>
<polyline clip-path="url(#clip110)" style="stroke:#000000; stroke-linecap:round; stroke-linejoin:round; stroke-width:4; stroke-opacity:1; fill:none" points="679.474,1800.78 679.474,1781.88 "/>
<polyline clip-path="url(#clip110)" style="stroke:#000000; stroke-linecap:round; stroke-linejoin:round; stroke-width:4; stroke-opacity:1; fill:none" points="1169.79,1800.78 1169.79,1781.88 "/>
<polyline clip-path="url(#clip110)" style="stroke:#000000; stroke-linecap:round; stroke-linejoin:round; stroke-width:4; stroke-opacity:1; fill:none" points="1660.12,1800.78 1660.12,1781.88 "/>
<polyline clip-path="url(#clip110)" style="stroke:#000000; stroke-linecap:round; stroke-linejoin:round; stroke-width:4; stroke-opacity:1; fill:none" points="2150.44,1800.78 2150.44,1781.88 "/>
<polyline clip-path="url(#clip110)" style="stroke:#000000; stroke-linecap:round; stroke-linejoin:round; stroke-width:4; stroke-opacity:1; fill:none" points="2640.76,1800.78 2640.76,1781.88 "/>
<path clip-path="url(#clip110)" d="M166.538 1834 Q162.927 1834 161.099 1837.57 Q159.293 1841.11 159.293 1848.24 Q159.293 1855.34 161.099 1858.91 Q162.927 1862.45 166.538 1862.45 Q170.173 1862.45 171.978 1858.91 Q173.807 1855.34 173.807 1848.24 Q173.807 1841.11 171.978 1837.57 Q170.173 1834 166.538 1834 M166.538 1830.3 Q172.349 1830.3 175.404 1834.9 Q178.483 1839.49 178.483 1848.24 Q178.483 1856.96 175.404 1861.57 Q172.349 1866.15 166.538 1866.15 Q160.728 1866.15 157.65 1861.57 Q154.594 1856.96 154.594 1848.24 Q154.594 1839.49 157.65 1834.9 Q160.728 1830.3 166.538 1830.3 Z" fill="#000000" fill-rule="nonzero" fill-opacity="1" /><path clip-path="url(#clip110)" d="M186.7 1859.6 L191.585 1859.6 L191.585 1865.48 L186.7 1865.48 L186.7 1859.6 Z" fill="#000000" fill-rule="nonzero" fill-opacity="1" /><path clip-path="url(#clip110)" d="M211.77 1834 Q208.159 1834 206.33 1837.57 Q204.524 1841.11 204.524 1848.24 Q204.524 1855.34 206.33 1858.91 Q208.159 1862.45 211.77 1862.45 Q215.404 1862.45 217.209 1858.91 Q219.038 1855.34 219.038 1848.24 Q219.038 1841.11 217.209 1837.57 Q215.404 1834 211.77 1834 M211.77 1830.3 Q217.58 1830.3 220.635 1834.9 Q223.714 1839.49 223.714 1848.24 Q223.714 1856.96 220.635 1861.57 Q217.58 1866.15 211.77 1866.15 Q205.959 1866.15 202.881 1861.57 Q199.825 1856.96 199.825 1848.24 Q199.825 1839.49 202.881 1834.9 Q205.959 1830.3 211.77 1830.3 Z" fill="#000000" fill-rule="nonzero" fill-opacity="1" /><path clip-path="url(#clip110)" d="M657.657 1834 Q654.046 1834 652.218 1837.57 Q650.412 1841.11 650.412 1848.24 Q650.412 1855.34 652.218 1858.91 Q654.046 1862.45 657.657 1862.45 Q661.292 1862.45 663.097 1858.91 Q664.926 1855.34 664.926 1848.24 Q664.926 1841.11 663.097 1837.57 Q661.292 1834 657.657 1834 M657.657 1830.3 Q663.468 1830.3 666.523 1834.9 Q669.602 1839.49 669.602 1848.24 Q669.602 1856.96 666.523 1861.57 Q663.468 1866.15 657.657 1866.15 Q651.847 1866.15 648.769 1861.57 Q645.713 1856.96 645.713 1848.24 Q645.713 1839.49 648.769 1834.9 Q651.847 1830.3 657.657 1830.3 Z" fill="#000000" fill-rule="nonzero" fill-opacity="1" /><path clip-path="url(#clip110)" d="M677.819 1859.6 L682.704 1859.6 L682.704 1865.48 L677.819 1865.48 L677.819 1859.6 Z" fill="#000000" fill-rule="nonzero" fill-opacity="1" /><path clip-path="url(#clip110)" d="M696.916 1861.55 L713.236 1861.55 L713.236 1865.48 L691.291 1865.48 L691.291 1861.55 Q693.953 1858.79 698.537 1854.16 Q703.143 1849.51 704.324 1848.17 Q706.569 1845.65 707.449 1843.91 Q708.352 1842.15 708.352 1840.46 Q708.352 1837.71 706.407 1835.97 Q704.486 1834.23 701.384 1834.23 Q699.185 1834.23 696.731 1835 Q694.301 1835.76 691.523 1837.31 L691.523 1832.59 Q694.347 1831.46 696.801 1830.88 Q699.254 1830.3 701.291 1830.3 Q706.662 1830.3 709.856 1832.98 Q713.051 1835.67 713.051 1840.16 Q713.051 1842.29 712.24 1844.21 Q711.453 1846.11 709.347 1848.7 Q708.768 1849.37 705.666 1852.59 Q702.565 1855.78 696.916 1861.55 Z" fill="#000000" fill-rule="nonzero" fill-opacity="1" /><path clip-path="url(#clip110)" d="M1146.94 1834 Q1143.32 1834 1141.5 1837.57 Q1139.69 1841.11 1139.69 1848.24 Q1139.69 1855.34 1141.5 1858.91 Q1143.32 1862.45 1146.94 1862.45 Q1150.57 1862.45 1152.38 1858.91 Q1154.2 1855.34 1154.2 1848.24 Q1154.2 1841.11 1152.38 1837.57 Q1150.57 1834 1146.94 1834 M1146.94 1830.3 Q1152.75 1830.3 1155.8 1834.9 Q1158.88 1839.49 1158.88 1848.24 Q1158.88 1856.96 1155.8 1861.57 Q1152.75 1866.15 1146.94 1866.15 Q1141.13 1866.15 1138.05 1861.57 Q1134.99 1856.96 1134.99 1848.24 Q1134.99 1839.49 1138.05 1834.9 Q1141.13 1830.3 1146.94 1830.3 Z" fill="#000000" fill-rule="nonzero" fill-opacity="1" /><path clip-path="url(#clip110)" d="M1167.1 1859.6 L1171.98 1859.6 L1171.98 1865.48 L1167.1 1865.48 L1167.1 1859.6 Z" fill="#000000" fill-rule="nonzero" fill-opacity="1" /><path clip-path="url(#clip110)" d="M1195.01 1835 L1183.21 1853.45 L1195.01 1853.45 L1195.01 1835 M1193.79 1830.92 L1199.67 1830.92 L1199.67 1853.45 L1204.6 1853.45 L1204.6 1857.34 L1199.67 1857.34 L1199.67 1865.48 L1195.01 1865.48 L1195.01 1857.34 L1179.41 1857.34 L1179.41 1852.82 L1193.79 1830.92 Z" fill="#000000" fill-rule="nonzero" fill-opacity="1" /><path clip-path="url(#clip110)" d="M1637.42 1834 Q1633.81 1834 1631.98 1837.57 Q1630.17 1841.11 1630.17 1848.24 Q1630.17 1855.34 1631.98 1858.91 Q1633.81 1862.45 1637.42 1862.45 Q1641.05 1862.45 1642.86 1858.91 Q1644.69 1855.34 1644.69 1848.24 Q1644.69 1841.11 1642.86 1837.57 Q1641.05 1834 1637.42 1834 M1637.42 1830.3 Q1643.23 1830.3 1646.28 1834.9 Q1649.36 1839.49 1649.36 1848.24 Q1649.36 1856.96 1646.28 1861.57 Q1643.23 1866.15 1637.42 1866.15 Q1631.61 1866.15 1628.53 1861.57 Q1625.47 1856.96 1625.47 1848.24 Q1625.47 1839.49 1628.53 1834.9 Q1631.61 1830.3 1637.42 1830.3 Z" fill="#000000" fill-rule="nonzero" fill-opacity="1" /><path clip-path="url(#clip110)" d="M1657.58 1859.6 L1662.46 1859.6 L1662.46 1865.48 L1657.58 1865.48 L1657.58 1859.6 Z" fill="#000000" fill-rule="nonzero" fill-opacity="1" /><path clip-path="url(#clip110)" d="M1683.23 1846.34 Q1680.08 1846.34 1678.23 1848.49 Q1676.4 1850.65 1676.4 1854.4 Q1676.4 1858.12 1678.23 1860.3 Q1680.08 1862.45 1683.23 1862.45 Q1686.38 1862.45 1688.21 1860.3 Q1690.06 1858.12 1690.06 1854.4 Q1690.06 1850.65 1688.21 1848.49 Q1686.38 1846.34 1683.23 1846.34 M1692.51 1831.69 L1692.51 1835.95 Q1690.75 1835.11 1688.95 1834.67 Q1687.16 1834.23 1685.4 1834.23 Q1680.77 1834.23 1678.32 1837.36 Q1675.89 1840.48 1675.54 1846.8 Q1676.91 1844.79 1678.97 1843.72 Q1681.03 1842.64 1683.51 1842.64 Q1688.71 1842.64 1691.72 1845.81 Q1694.76 1848.96 1694.76 1854.4 Q1694.76 1859.72 1691.61 1862.94 Q1688.46 1866.15 1683.23 1866.15 Q1677.23 1866.15 1674.06 1861.57 Q1670.89 1856.96 1670.89 1848.24 Q1670.89 1840.04 1674.78 1835.18 Q1678.67 1830.3 1685.22 1830.3 Q1686.98 1830.3 1688.76 1830.65 Q1690.57 1830.99 1692.51 1831.69 Z" fill="#000000" fill-rule="nonzero" fill-opacity="1" /><path clip-path="url(#clip110)" d="M2127.87 1834 Q2124.26 1834 2122.43 1837.57 Q2120.62 1841.11 2120.62 1848.24 Q2120.62 1855.34 2122.43 1858.91 Q2124.26 1862.45 2127.87 1862.45 Q2131.5 1862.45 2133.31 1858.91 Q2135.13 1855.34 2135.13 1848.24 Q2135.13 1841.11 2133.31 1837.57 Q2131.5 1834 2127.87 1834 M2127.87 1830.3 Q2133.68 1830.3 2136.73 1834.9 Q2139.81 1839.49 2139.81 1848.24 Q2139.81 1856.96 2136.73 1861.57 Q2133.68 1866.15 2127.87 1866.15 Q2122.06 1866.15 2118.98 1861.57 Q2115.92 1856.96 2115.92 1848.24 Q2115.92 1839.49 2118.98 1834.9 Q2122.06 1830.3 2127.87 1830.3 Z" fill="#000000" fill-rule="nonzero" fill-opacity="1" /><path clip-path="url(#clip110)" d="M2148.03 1859.6 L2152.91 1859.6 L2152.91 1865.48 L2148.03 1865.48 L2148.03 1859.6 Z" fill="#000000" fill-rule="nonzero" fill-opacity="1" /><path clip-path="url(#clip110)" d="M2173.1 1849.07 Q2169.76 1849.07 2167.84 1850.85 Q2165.94 1852.64 2165.94 1855.76 Q2165.94 1858.89 2167.84 1860.67 Q2169.76 1862.45 2173.1 1862.45 Q2176.43 1862.45 2178.35 1860.67 Q2180.27 1858.86 2180.27 1855.76 Q2180.27 1852.64 2178.35 1850.85 Q2176.45 1849.07 2173.1 1849.07 M2168.42 1847.08 Q2165.41 1846.34 2163.72 1844.28 Q2162.06 1842.22 2162.06 1839.26 Q2162.06 1835.11 2165 1832.71 Q2167.96 1830.3 2173.1 1830.3 Q2178.26 1830.3 2181.2 1832.71 Q2184.14 1835.11 2184.14 1839.26 Q2184.14 1842.22 2182.45 1844.28 Q2180.78 1846.34 2177.8 1847.08 Q2181.18 1847.87 2183.05 1850.16 Q2184.95 1852.45 2184.95 1855.76 Q2184.95 1860.78 2181.87 1863.47 Q2178.82 1866.15 2173.1 1866.15 Q2167.38 1866.15 2164.3 1863.47 Q2161.25 1860.78 2161.25 1855.76 Q2161.25 1852.45 2163.14 1850.16 Q2165.04 1847.87 2168.42 1847.08 M2166.71 1839.7 Q2166.71 1842.38 2168.38 1843.89 Q2170.07 1845.39 2173.1 1845.39 Q2176.11 1845.39 2177.8 1843.89 Q2179.51 1842.38 2179.51 1839.7 Q2179.51 1837.01 2177.8 1835.51 Q2176.11 1834 2173.1 1834 Q2170.07 1834 2168.38 1835.51 Q2166.71 1837.01 2166.71 1839.7 Z" fill="#000000" fill-rule="nonzero" fill-opacity="1" /><path clip-path="url(#clip110)" d="M2607.91 1861.55 L2615.55 1861.55 L2615.55 1835.18 L2607.24 1836.85 L2607.24 1832.59 L2615.5 1830.92 L2620.18 1830.92 L2620.18 1861.55 L2627.82 1861.55 L2627.82 1865.48 L2607.91 1865.48 L2607.91 1861.55 Z" fill="#000000" fill-rule="nonzero" fill-opacity="1" /><path clip-path="url(#clip110)" d="M2637.26 1859.6 L2642.14 1859.6 L2642.14 1865.48 L2637.26 1865.48 L2637.26 1859.6 Z" fill="#000000" fill-rule="nonzero" fill-opacity="1" /><path clip-path="url(#clip110)" d="M2662.33 1834 Q2658.72 1834 2656.89 1837.57 Q2655.08 1841.11 2655.08 1848.24 Q2655.08 1855.34 2656.89 1858.91 Q2658.72 1862.45 2662.33 1862.45 Q2665.96 1862.45 2667.77 1858.91 Q2669.6 1855.34 2669.6 1848.24 Q2669.6 1841.11 2667.77 1837.57 Q2665.96 1834 2662.33 1834 M2662.33 1830.3 Q2668.14 1830.3 2671.2 1834.9 Q2674.27 1839.49 2674.27 1848.24 Q2674.27 1856.96 2671.2 1861.57 Q2668.14 1866.15 2662.33 1866.15 Q2656.52 1866.15 2653.44 1861.57 Q2650.39 1856.96 2650.39 1848.24 Q2650.39 1839.49 2653.44 1834.9 Q2656.52 1830.3 2662.33 1830.3 Z" fill="#000000" fill-rule="nonzero" fill-opacity="1" /><polyline clip-path="url(#clip112)" style="stroke:#000000; stroke-linecap:round; stroke-linejoin:round; stroke-width:2; stroke-opacity:0.1; fill:none" points="189.154,1673.43 2640.76,1673.43 "/>
<polyline clip-path="url(#clip112)" style="stroke:#000000; stroke-linecap:round; stroke-linejoin:round; stroke-width:2; stroke-opacity:0.1; fill:none" points="189.154,1343.36 2640.76,1343.36 "/>
<polyline clip-path="url(#clip112)" style="stroke:#000000; stroke-linecap:round; stroke-linejoin:round; stroke-width:2; stroke-opacity:0.1; fill:none" points="189.154,1013.3 2640.76,1013.3 "/>
<polyline clip-path="url(#clip112)" style="stroke:#000000; stroke-linecap:round; stroke-linejoin:round; stroke-width:2; stroke-opacity:0.1; fill:none" points="189.154,683.232 2640.76,683.232 "/>
<polyline clip-path="url(#clip112)" style="stroke:#000000; stroke-linecap:round; stroke-linejoin:round; stroke-width:2; stroke-opacity:0.1; fill:none" points="189.154,353.166 2640.76,353.166 "/>
<polyline clip-path="url(#clip110)" style="stroke:#000000; stroke-linecap:round; stroke-linejoin:round; stroke-width:4; stroke-opacity:1; fill:none" points="189.154,1800.78 189.154,47.2441 "/>
<polyline clip-path="url(#clip110)" style="stroke:#000000; stroke-linecap:round; stroke-linejoin:round; stroke-width:4; stroke-opacity:1; fill:none" points="189.154,1673.43 208.052,1673.43 "/>
<polyline clip-path="url(#clip110)" style="stroke:#000000; stroke-linecap:round; stroke-linejoin:round; stroke-width:4; stroke-opacity:1; fill:none" points="189.154,1343.36 208.052,1343.36 "/>
<polyline clip-path="url(#clip110)" style="stroke:#000000; stroke-linecap:round; stroke-linejoin:round; stroke-width:4; stroke-opacity:1; fill:none" points="189.154,1013.3 208.052,1013.3 "/>
<polyline clip-path="url(#clip110)" style="stroke:#000000; stroke-linecap:round; stroke-linejoin:round; stroke-width:4; stroke-opacity:1; fill:none" points="189.154,683.232 208.052,683.232 "/>
<polyline clip-path="url(#clip110)" style="stroke:#000000; stroke-linecap:round; stroke-linejoin:round; stroke-width:4; stroke-opacity:1; fill:none" points="189.154,353.166 208.052,353.166 "/>
<path clip-path="url(#clip110)" d="M61.4965 1659.23 Q57.8854 1659.23 56.0567 1662.79 Q54.2512 1666.34 54.2512 1673.46 Q54.2512 1680.57 56.0567 1684.14 Q57.8854 1687.68 61.4965 1687.68 Q65.1307 1687.68 66.9363 1684.14 Q68.765 1680.57 68.765 1673.46 Q68.765 1666.34 66.9363 1662.79 Q65.1307 1659.23 61.4965 1659.23 M61.4965 1655.53 Q67.3067 1655.53 70.3622 1660.13 Q73.4409 1664.71 73.4409 1673.46 Q73.4409 1682.19 70.3622 1686.8 Q67.3067 1691.38 61.4965 1691.38 Q55.6864 1691.38 52.6077 1686.8 Q49.5521 1682.19 49.5521 1673.46 Q49.5521 1664.71 52.6077 1660.13 Q55.6864 1655.53 61.4965 1655.53 Z" fill="#000000" fill-rule="nonzero" fill-opacity="1" /><path clip-path="url(#clip110)" d="M81.6584 1684.83 L86.5427 1684.83 L86.5427 1690.71 L81.6584 1690.71 L81.6584 1684.83 Z" fill="#000000" fill-rule="nonzero" fill-opacity="1" /><path clip-path="url(#clip110)" d="M100.756 1686.78 L117.075 1686.78 L117.075 1690.71 L95.1306 1690.71 L95.1306 1686.78 Q97.7926 1684.02 102.376 1679.39 Q106.982 1674.74 108.163 1673.4 Q110.408 1670.87 111.288 1669.14 Q112.191 1667.38 112.191 1665.69 Q112.191 1662.93 110.246 1661.2 Q108.325 1659.46 105.223 1659.46 Q103.024 1659.46 100.57 1660.22 Q98.1398 1660.99 95.3621 1662.54 L95.3621 1657.82 Q98.1861 1656.68 100.64 1656.1 Q103.094 1655.53 105.131 1655.53 Q110.501 1655.53 113.695 1658.21 Q116.89 1660.9 116.89 1665.39 Q116.89 1667.52 116.08 1669.44 Q115.293 1671.34 113.186 1673.93 Q112.607 1674.6 109.506 1677.82 Q106.404 1681.01 100.756 1686.78 Z" fill="#000000" fill-rule="nonzero" fill-opacity="1" /><path clip-path="url(#clip110)" d="M136.89 1659.23 Q133.279 1659.23 131.45 1662.79 Q129.644 1666.34 129.644 1673.46 Q129.644 1680.57 131.45 1684.14 Q133.279 1687.68 136.89 1687.68 Q140.524 1687.68 142.329 1684.14 Q144.158 1680.57 144.158 1673.46 Q144.158 1666.34 142.329 1662.79 Q140.524 1659.23 136.89 1659.23 M136.89 1655.53 Q142.7 1655.53 145.755 1660.13 Q148.834 1664.71 148.834 1673.46 Q148.834 1682.19 145.755 1686.8 Q142.7 1691.38 136.89 1691.38 Q131.079 1691.38 128.001 1686.8 Q124.945 1682.19 124.945 1673.46 Q124.945 1664.71 128.001 1660.13 Q131.079 1655.53 136.89 1655.53 Z" fill="#000000" fill-rule="nonzero" fill-opacity="1" /><path clip-path="url(#clip110)" d="M62.4919 1329.16 Q58.8808 1329.16 57.0521 1332.73 Q55.2465 1336.27 55.2465 1343.4 Q55.2465 1350.51 57.0521 1354.07 Q58.8808 1357.61 62.4919 1357.61 Q66.1261 1357.61 67.9317 1354.07 Q69.7604 1350.51 69.7604 1343.4 Q69.7604 1336.27 67.9317 1332.73 Q66.1261 1329.16 62.4919 1329.16 M62.4919 1325.46 Q68.302 1325.46 71.3576 1330.07 Q74.4363 1334.65 74.4363 1343.4 Q74.4363 1352.13 71.3576 1356.73 Q68.302 1361.32 62.4919 1361.32 Q56.6817 1361.32 53.603 1356.73 Q50.5475 1352.13 50.5475 1343.4 Q50.5475 1334.65 53.603 1330.07 Q56.6817 1325.46 62.4919 1325.46 Z" fill="#000000" fill-rule="nonzero" fill-opacity="1" /><path clip-path="url(#clip110)" d="M82.6538 1354.76 L87.538 1354.76 L87.538 1360.64 L82.6538 1360.64 L82.6538 1354.76 Z" fill="#000000" fill-rule="nonzero" fill-opacity="1" /><path clip-path="url(#clip110)" d="M101.751 1356.71 L118.07 1356.71 L118.07 1360.64 L96.126 1360.64 L96.126 1356.71 Q98.788 1353.95 103.371 1349.32 Q107.978 1344.67 109.158 1343.33 Q111.404 1340.81 112.283 1339.07 Q113.186 1337.31 113.186 1335.62 Q113.186 1332.87 111.242 1331.13 Q109.32 1329.39 106.218 1329.39 Q104.019 1329.39 101.566 1330.16 Q99.1352 1330.92 96.3574 1332.47 L96.3574 1327.75 Q99.1815 1326.62 101.635 1326.04 Q104.089 1325.46 106.126 1325.46 Q111.496 1325.46 114.691 1328.14 Q117.885 1330.83 117.885 1335.32 Q117.885 1337.45 117.075 1339.37 Q116.288 1341.27 114.181 1343.86 Q113.603 1344.53 110.501 1347.75 Q107.399 1350.95 101.751 1356.71 Z" fill="#000000" fill-rule="nonzero" fill-opacity="1" /><path clip-path="url(#clip110)" d="M127.931 1326.08 L146.288 1326.08 L146.288 1330.02 L132.214 1330.02 L132.214 1338.49 Q133.232 1338.14 134.251 1337.98 Q135.269 1337.8 136.288 1337.8 Q142.075 1337.8 145.454 1340.97 Q148.834 1344.14 148.834 1349.56 Q148.834 1355.13 145.362 1358.24 Q141.89 1361.32 135.57 1361.32 Q133.394 1361.32 131.126 1360.95 Q128.88 1360.57 126.473 1359.83 L126.473 1355.13 Q128.556 1356.27 130.779 1356.82 Q133.001 1357.38 135.478 1357.38 Q139.482 1357.38 141.82 1355.27 Q144.158 1353.17 144.158 1349.56 Q144.158 1345.95 141.82 1343.84 Q139.482 1341.73 135.478 1341.73 Q133.603 1341.73 131.728 1342.15 Q129.876 1342.57 127.931 1343.45 L127.931 1326.08 Z" fill="#000000" fill-rule="nonzero" fill-opacity="1" /><path clip-path="url(#clip110)" d="M61.4965 999.097 Q57.8854 999.097 56.0567 1002.66 Q54.2512 1006.2 54.2512 1013.33 Q54.2512 1020.44 56.0567 1024 Q57.8854 1027.55 61.4965 1027.55 Q65.1307 1027.55 66.9363 1024 Q68.765 1020.44 68.765 1013.33 Q68.765 1006.2 66.9363 1002.66 Q65.1307 999.097 61.4965 999.097 M61.4965 995.393 Q67.3067 995.393 70.3622 1000 Q73.4409 1004.58 73.4409 1013.33 Q73.4409 1022.06 70.3622 1026.67 Q67.3067 1031.25 61.4965 1031.25 Q55.6864 1031.25 52.6077 1026.67 Q49.5521 1022.06 49.5521 1013.33 Q49.5521 1004.58 52.6077 1000 Q55.6864 995.393 61.4965 995.393 Z" fill="#000000" fill-rule="nonzero" fill-opacity="1" /><path clip-path="url(#clip110)" d="M81.6584 1024.7 L86.5427 1024.7 L86.5427 1030.58 L81.6584 1030.58 L81.6584 1024.7 Z" fill="#000000" fill-rule="nonzero" fill-opacity="1" /><path clip-path="url(#clip110)" d="M110.894 1011.94 Q114.251 1012.66 116.126 1014.93 Q118.024 1017.2 118.024 1020.53 Q118.024 1025.65 114.505 1028.45 Q110.987 1031.25 104.506 1031.25 Q102.33 1031.25 100.015 1030.81 Q97.7232 1030.39 95.2695 1029.54 L95.2695 1025.02 Q97.2139 1026.16 99.5287 1026.74 Q101.844 1027.31 104.367 1027.31 Q108.765 1027.31 111.056 1025.58 Q113.371 1023.84 113.371 1020.53 Q113.371 1017.48 111.218 1015.76 Q109.089 1014.03 105.269 1014.03 L101.242 1014.03 L101.242 1010.18 L105.455 1010.18 Q108.904 1010.18 110.732 1008.82 Q112.561 1007.43 112.561 1004.84 Q112.561 1002.18 110.663 1000.76 Q108.788 999.328 105.269 999.328 Q103.348 999.328 101.149 999.745 Q98.95 1000.16 96.3111 1001.04 L96.3111 996.875 Q98.9732 996.134 101.288 995.763 Q103.626 995.393 105.686 995.393 Q111.01 995.393 114.112 997.824 Q117.214 1000.23 117.214 1004.35 Q117.214 1007.22 115.57 1009.21 Q113.927 1011.18 110.894 1011.94 Z" fill="#000000" fill-rule="nonzero" fill-opacity="1" /><path clip-path="url(#clip110)" d="M136.89 999.097 Q133.279 999.097 131.45 1002.66 Q129.644 1006.2 129.644 1013.33 Q129.644 1020.44 131.45 1024 Q133.279 1027.55 136.89 1027.55 Q140.524 1027.55 142.329 1024 Q144.158 1020.44 144.158 1013.33 Q144.158 1006.2 142.329 1002.66 Q140.524 999.097 136.89 999.097 M136.89 995.393 Q142.7 995.393 145.755 1000 Q148.834 1004.58 148.834 1013.33 Q148.834 1022.06 145.755 1026.67 Q142.7 1031.25 136.89 1031.25 Q131.079 1031.25 128.001 1026.67 Q124.945 1022.06 124.945 1013.33 Q124.945 1004.58 128.001 1000 Q131.079 995.393 136.89 995.393 Z" fill="#000000" fill-rule="nonzero" fill-opacity="1" /><path clip-path="url(#clip110)" d="M62.4919 669.031 Q58.8808 669.031 57.0521 672.595 Q55.2465 676.137 55.2465 683.267 Q55.2465 690.373 57.0521 693.938 Q58.8808 697.48 62.4919 697.48 Q66.1261 697.48 67.9317 693.938 Q69.7604 690.373 69.7604 683.267 Q69.7604 676.137 67.9317 672.595 Q66.1261 669.031 62.4919 669.031 M62.4919 665.327 Q68.302 665.327 71.3576 669.933 Q74.4363 674.517 74.4363 683.267 Q74.4363 691.994 71.3576 696.6 Q68.302 701.183 62.4919 701.183 Q56.6817 701.183 53.603 696.6 Q50.5475 691.994 50.5475 683.267 Q50.5475 674.517 53.603 669.933 Q56.6817 665.327 62.4919 665.327 Z" fill="#000000" fill-rule="nonzero" fill-opacity="1" /><path clip-path="url(#clip110)" d="M82.6538 694.632 L87.538 694.632 L87.538 700.512 L82.6538 700.512 L82.6538 694.632 Z" fill="#000000" fill-rule="nonzero" fill-opacity="1" /><path clip-path="url(#clip110)" d="M111.89 681.878 Q115.246 682.595 117.121 684.864 Q119.019 687.132 119.019 690.466 Q119.019 695.581 115.501 698.382 Q111.982 701.183 105.501 701.183 Q103.325 701.183 101.01 700.743 Q98.7185 700.327 96.2648 699.47 L96.2648 694.956 Q98.2093 696.091 100.524 696.669 Q102.839 697.248 105.362 697.248 Q109.76 697.248 112.052 695.512 Q114.367 693.776 114.367 690.466 Q114.367 687.41 112.214 685.697 Q110.084 683.961 106.265 683.961 L102.237 683.961 L102.237 680.119 L106.45 680.119 Q109.899 680.119 111.728 678.753 Q113.556 677.364 113.556 674.771 Q113.556 672.109 111.658 670.697 Q109.783 669.262 106.265 669.262 Q104.343 669.262 102.144 669.679 Q99.9454 670.095 97.3065 670.975 L97.3065 666.808 Q99.9685 666.068 102.283 665.697 Q104.621 665.327 106.681 665.327 Q112.005 665.327 115.107 667.758 Q118.209 670.165 118.209 674.285 Q118.209 677.156 116.566 679.146 Q114.922 681.114 111.89 681.878 Z" fill="#000000" fill-rule="nonzero" fill-opacity="1" /><path clip-path="url(#clip110)" d="M127.931 665.952 L146.288 665.952 L146.288 669.887 L132.214 669.887 L132.214 678.359 Q133.232 678.012 134.251 677.85 Q135.269 677.665 136.288 677.665 Q142.075 677.665 145.454 680.836 Q148.834 684.007 148.834 689.424 Q148.834 695.003 145.362 698.105 Q141.89 701.183 135.57 701.183 Q133.394 701.183 131.126 700.813 Q128.88 700.443 126.473 699.702 L126.473 695.003 Q128.556 696.137 130.779 696.693 Q133.001 697.248 135.478 697.248 Q139.482 697.248 141.82 695.142 Q144.158 693.035 144.158 689.424 Q144.158 685.813 141.82 683.707 Q139.482 681.6 135.478 681.6 Q133.603 681.6 131.728 682.017 Q129.876 682.433 127.931 683.313 L127.931 665.952 Z" fill="#000000" fill-rule="nonzero" fill-opacity="1" /><path clip-path="url(#clip110)" d="M61.4965 338.965 Q57.8854 338.965 56.0567 342.529 Q54.2512 346.071 54.2512 353.201 Q54.2512 360.307 56.0567 363.872 Q57.8854 367.414 61.4965 367.414 Q65.1307 367.414 66.9363 363.872 Q68.765 360.307 68.765 353.201 Q68.765 346.071 66.9363 342.529 Q65.1307 338.965 61.4965 338.965 M61.4965 335.261 Q67.3067 335.261 70.3622 339.867 Q73.4409 344.451 73.4409 353.201 Q73.4409 361.927 70.3622 366.534 Q67.3067 371.117 61.4965 371.117 Q55.6864 371.117 52.6077 366.534 Q49.5521 361.927 49.5521 353.201 Q49.5521 344.451 52.6077 339.867 Q55.6864 335.261 61.4965 335.261 Z" fill="#000000" fill-rule="nonzero" fill-opacity="1" /><path clip-path="url(#clip110)" d="M81.6584 364.566 L86.5427 364.566 L86.5427 370.446 L81.6584 370.446 L81.6584 364.566 Z" fill="#000000" fill-rule="nonzero" fill-opacity="1" /><path clip-path="url(#clip110)" d="M109.575 339.96 L97.7695 358.409 L109.575 358.409 L109.575 339.96 M108.348 335.886 L114.228 335.886 L114.228 358.409 L119.158 358.409 L119.158 362.298 L114.228 362.298 L114.228 370.446 L109.575 370.446 L109.575 362.298 L93.9732 362.298 L93.9732 357.784 L108.348 335.886 Z" fill="#000000" fill-rule="nonzero" fill-opacity="1" /><path clip-path="url(#clip110)" d="M136.89 338.965 Q133.279 338.965 131.45 342.529 Q129.644 346.071 129.644 353.201 Q129.644 360.307 131.45 363.872 Q133.279 367.414 136.89 367.414 Q140.524 367.414 142.329 363.872 Q144.158 360.307 144.158 353.201 Q144.158 346.071 142.329 342.529 Q140.524 338.965 136.89 338.965 M136.89 335.261 Q142.7 335.261 145.755 339.867 Q148.834 344.451 148.834 353.201 Q148.834 361.927 145.755 366.534 Q142.7 371.117 136.89 371.117 Q131.079 371.117 128.001 366.534 Q124.945 361.927 124.945 353.201 Q124.945 344.451 128.001 339.867 Q131.079 335.261 136.89 335.261 Z" fill="#000000" fill-rule="nonzero" fill-opacity="1" /><polyline clip-path="url(#clip112)" style="stroke:#009af9; stroke-linecap:round; stroke-linejoin:round; stroke-width:4; stroke-opacity:1; fill:none" points="189.154,705.851 193.144,714.29 197.135,722.728 201.125,731.01 205.115,739.326 242.012,814.566 278.908,886.816 315.804,956.082 352.7,1022.36 374.873,1060.76 397.046,1098.09 419.22,1134.35 441.393,1169.53 478.887,1226.59 516.381,1280.61 557.11,1335.86 597.839,1387.54 635.388,1432.04 672.937,1473.54 713.193,1514.73 753.449,1552.51 776.769,1572.85 800.09,1592.07 823.41,1610.15 846.73,1627.11 888.179,1654.52 929.628,1678.43 965.975,1696.56 1002.32,1712.05 1041.95,1725.96 1081.58,1736.79 1121.44,1744.61 1161.3,1749.38 1205.38,1751.15 1249.45,1749.28 1291.39,1744.16 1333.32,1735.82 1376.93,1723.79 1420.53,1708.38 1457.23,1692.82 1493.94,1674.93 1538.75,1649.96 1583.56,1621.6 1624.61,1592.7 1665.66,1561.04 1703.58,1529.39 1741.49,1495.45 1779.89,1458.77 1818.3,1419.81 1861.34,1373.48 1904.38,1324.38 1943.38,1277.52 1982.39,1228.45 2027.04,1169.6 2071.7,1107.94 2113.04,1048.4 2154.39,986.525 2195.15,923.291 2235.92,857.87 2275.49,792.293 2315.07,724.72 2355.64,653.412 2396.21,580.073 2440.66,497.429 2485.12,412.432 2549.69,284.851 2614.26,152.516 2627.51,124.791 2640.76,96.8724 "/>
<path clip-path="url(#clip110)" d="M270.874 209.375 L660.061 209.375 L660.061 105.695 L270.874 105.695  Z" fill="#ffffff" fill-rule="evenodd" fill-opacity="1"/>
<polyline clip-path="url(#clip110)" style="stroke:#000000; stroke-linecap:round; stroke-linejoin:round; stroke-width:4; stroke-opacity:1; fill:none" points="270.874,209.375 660.061,209.375 660.061,105.695 270.874,105.695 270.874,209.375 "/>
<polyline clip-path="url(#clip110)" style="stroke:#009af9; stroke-linecap:round; stroke-linejoin:round; stroke-width:4; stroke-opacity:1; fill:none" points="298.114,157.535 461.554,157.535 "/>
<path clip-path="url(#clip110)" d="M502.637 177.223 Q500.831 181.852 499.118 183.264 Q497.405 184.676 494.535 184.676 L491.132 184.676 L491.132 181.112 L493.632 181.112 Q495.391 181.112 496.364 180.278 Q497.336 179.445 498.516 176.343 L499.28 174.399 L488.794 148.889 L493.308 148.889 L501.41 169.167 L509.512 148.889 L514.026 148.889 L502.637 177.223 Z" fill="#000000" fill-rule="nonzero" fill-opacity="1" /><path clip-path="url(#clip110)" d="M520.461 153.288 L550.136 153.288 L550.136 157.176 L520.461 157.176 L520.461 153.288 M520.461 162.732 L550.136 162.732 L550.136 166.667 L520.461 166.667 L520.461 162.732 Z" fill="#000000" fill-rule="nonzero" fill-opacity="1" /><path clip-path="url(#clip110)" d="M572.752 138.797 L572.752 142.339 L568.678 142.339 Q566.386 142.339 565.484 143.265 Q564.604 144.19 564.604 146.598 L564.604 148.889 L571.618 148.889 L571.618 152.2 L564.604 152.2 L564.604 174.815 L560.322 174.815 L560.322 152.2 L556.248 152.2 L556.248 148.889 L560.322 148.889 L560.322 147.084 Q560.322 142.755 562.336 140.788 Q564.349 138.797 568.724 138.797 L572.752 138.797 Z" fill="#000000" fill-rule="nonzero" fill-opacity="1" /><path clip-path="url(#clip110)" d="M586.548 138.843 Q583.447 144.167 581.942 149.376 Q580.437 154.584 580.437 159.931 Q580.437 165.278 581.942 170.533 Q583.47 175.764 586.548 181.065 L582.845 181.065 Q579.372 175.625 577.636 170.371 Q575.923 165.116 575.923 159.931 Q575.923 154.769 577.636 149.538 Q579.349 144.306 582.845 138.843 L586.548 138.843 Z" fill="#000000" fill-rule="nonzero" fill-opacity="1" /><path clip-path="url(#clip110)" d="M616.363 148.889 L606.988 161.505 L616.849 174.815 L611.826 174.815 L604.28 164.63 L596.733 174.815 L591.71 174.815 L601.78 161.251 L592.567 148.889 L597.59 148.889 L604.465 158.126 L611.34 148.889 L616.363 148.889 Z" fill="#000000" fill-rule="nonzero" fill-opacity="1" /><path clip-path="url(#clip110)" d="M622.196 138.843 L625.9 138.843 Q629.372 144.306 631.085 149.538 Q632.821 154.769 632.821 159.931 Q632.821 165.116 631.085 170.371 Q629.372 175.625 625.9 181.065 L622.196 181.065 Q625.275 175.764 626.78 170.533 Q628.307 165.278 628.307 159.931 Q628.307 154.584 626.78 149.376 Q625.275 144.167 622.196 138.843 Z" fill="#000000" fill-rule="nonzero" fill-opacity="1" /></svg>
